<svg aria-hidden="true" style="position: absolute; width: 0; height: 0; overflow: hidden;" version="1.1" xmlns="http://www.w3.org/2000/svg" xmlns:xlink="http://www.w3.org/1999/xlink">
   <defs>
      <symbol id="icon-css" viewBox="0 0 27 32">
         <path d="M0 0l2.667 28 10.667 4 10.667-4 2.667-28h-26.667zM4.443 4h17.76l-0.349 4-7.594 4h7.237l-0.682 8.010 0.026-0.010-0.367 4-7.141 2.667-7.154-2.667-0.44-5.333h4.029l0.208 2.711 3.357 1.161 3.362-1.138 0.461-5.401h-11.648l-0.344-4 7.88-4h-8.232l-0.37-4z"></path>
      </symbol>
      <symbol id="icon-linkedin-with-circle" viewBox="0 0 20 20">
         <path d="M10 0.4c-5.302 0-9.6 4.298-9.6 9.6s4.298 9.6 9.6 9.6 9.6-4.298 9.6-9.6-4.298-9.6-9.6-9.6zM7.65 13.979h-1.944v-6.256h1.944v6.256zM6.666 6.955c-0.614 0-1.011-0.435-1.011-0.973 0-0.549 0.409-0.971 1.036-0.971s1.011 0.422 1.023 0.971c0 0.538-0.396 0.973-1.048 0.973zM14.75 13.979h-1.944v-3.467c0-0.807-0.282-1.355-0.985-1.355-0.537 0-0.856 0.371-0.997 0.728-0.052 0.127-0.065 0.307-0.065 0.486v3.607h-1.945v-4.26c0-0.781-0.025-1.434-0.051-1.996h1.689l0.089 0.869h0.039c0.256-0.408 0.883-1.010 1.932-1.010 1.279 0 2.238 0.857 2.238 2.699v3.699z"></path>
      </symbol>
      <symbol id="icon-html" viewBox="0 0 28 32">
         <path d="M0 0l0.12 1.4 2.24 25.32 0.080 0.88 0.84 0.24 10.48 2.92 0.36-0.080 11-3.040 0.080-0.88 2.28-25.36 0.12-1.36h-1.4l-26.2-0.040zM2.8 2.56l22 0.040-2.080 23.040-8.92 2.48-8.96-2.48-2.040-23.080zM5.88 6.4l0.84 9.56h10.96l-0.36 4.12-3.52 0.96h-0.040l-3.52-0.96-0.2-2.64h-3.2l0.44 5.080 6.48 1.8h0.040l6.48-1.8 0.88-9.72h-11.56l-0.28-3.24h12.12l0.28-3.16h-15.84z"></path>
      </symbol>
      <symbol id="icon-js" viewBox="0 0 30 32">
         <path d="M14.762 0c-0.449 0-0.898 0.11-1.286 0.332l-12.197 7.041c-0.788 0.455-1.279 1.318-1.279 2.228v12.774c0 0.923 0.491 1.773 1.279 2.228l3.202 1.846c1.551 0.763 2.104 0.762 2.805 0.762 2.302 0 3.618-1.391 3.618-3.803v-13.18c0-0.197-0.159-0.358-0.356-0.358h-1.538c-0.209 0-0.358 0.161-0.358 0.358v13.168c0 1.083-1.119 2.141-2.928 1.243l-3.349-1.933c-0.123-0.062-0.197-0.196-0.197-0.332v-12.762c0-0.148 0.074-0.272 0.197-0.346l12.197-7.038c0.111-0.074 0.259-0.074 0.382 0l12.197 7.038c0.123 0.074 0.197 0.199 0.197 0.334v12.774c0 0.135-0.074 0.27-0.185 0.332l-12.209 7.053c-0.111 0.062-0.271 0.062-0.382 0l-3.139-1.858c-0.086-0.062-0.207-0.073-0.293-0.024-0.874 0.492-1.034 0.553-1.846 0.837-0.197 0.062-0.505 0.184 0.111 0.529l4.072 2.413c0.394 0.222 0.838 0.344 1.281 0.344 0.455 0 0.897-0.122 1.291-0.344l12.211-7.053c0.788-0.455 1.279-1.305 1.279-2.228v-12.762c0-0.923-0.491-1.773-1.279-2.228l-12.211-7.053c-0.388-0.222-0.837-0.332-1.286-0.332zM18.043 9.853c-3.483 0-5.563 1.476-5.563 3.938 0 2.671 2.066 3.408 5.414 3.74 4 0.394 4.308 0.986 4.308 1.774 0 1.354-1.094 1.933-3.666 1.933-3.237 0-3.951-0.814-4.185-2.414-0.025-0.172-0.171-0.296-0.344-0.296h-1.589c-0.197 0-0.344 0.161-0.344 0.346 0 2.055 1.12 4.502 6.461 4.502 3.865 0 6.079-1.524 6.079-4.183 0-2.634-1.785-3.337-5.526-3.841-3.803-0.492-4.185-0.751-4.185-1.637 0-0.738 0.333-1.709 3.139-1.709 2.498 0 3.433 0.54 3.815 2.226 0.037 0.16 0.171 0.284 0.344 0.284h1.589c0.098 0 0.183-0.049 0.257-0.123 0.062-0.062 0.099-0.161 0.087-0.272-0.246-2.905-2.177-4.269-6.091-4.269z"></path>
      </symbol>
      <symbol id="icon-react" viewBox="0 0 34 32">
         <path d="M11.575 0.014c-1.040-0.069-2.063 0.117-2.959 0.635-1.195 0.69-1.991 1.868-2.418 3.224s-0.526 2.919-0.37 4.625c0.016 0.173 0.046 0.353 0.067 0.529-0.163 0.070-0.335 0.134-0.493 0.207-1.556 0.718-2.859 1.584-3.82 2.632s-1.582 2.327-1.582 3.707c0 1.38 0.621 2.659 1.582 3.707s2.264 1.914 3.82 2.632c0.158 0.073 0.33 0.137 0.493 0.207-0.021 0.176-0.051 0.356-0.067 0.529-0.156 1.706-0.057 3.269 0.37 4.625s1.223 2.534 2.418 3.224c1.195 0.69 2.612 0.791 4 0.483s2.79-1.004 4.19-1.993c0.142-0.1 0.284-0.216 0.425-0.322 0.142 0.106 0.284 0.222 0.425 0.322 1.4 0.988 2.802 1.685 4.19 1.993s2.805 0.207 4-0.483c1.195-0.69 1.991-1.868 2.418-3.224s0.526-2.919 0.37-4.625c-0.016-0.173-0.046-0.353-0.067-0.529 0.163-0.070 0.335-0.134 0.493-0.207 1.556-0.718 2.859-1.584 3.82-2.632s1.582-2.327 1.582-3.707c0-1.38-0.621-2.659-1.582-3.707s-2.264-1.914-3.82-2.632c-0.158-0.073-0.33-0.137-0.493-0.207 0.021-0.176 0.052-0.356 0.067-0.529 0.156-1.706 0.057-3.269-0.37-4.625s-1.223-2.534-2.418-3.224c-1.195-0.69-2.612-0.791-4-0.483s-2.79 1.004-4.19 1.993c-0.142 0.1-0.284 0.216-0.425 0.322-0.142-0.106-0.284-0.222-0.425-0.322-1.4-0.988-2.802-1.685-4.19-1.993-0.347-0.077-0.694-0.128-1.041-0.151zM11.413 2.466c0.21 0.016 0.433 0.051 0.671 0.103 0.93 0.206 2.044 0.728 3.219 1.546-0.978 0.928-1.941 1.984-2.861 3.166-1.481 0.205-2.877 0.509-4.168 0.892-0.12-1.426-0.017-2.652 0.269-3.56 0.293-0.93 0.732-1.502 1.303-1.832 0.428-0.247 0.938-0.362 1.567-0.315zM23.048 2.466c0.629-0.047 1.139 0.068 1.567 0.315 0.571 0.33 1.010 0.902 1.303 1.832 0.286 0.908 0.39 2.135 0.269 3.56-1.292-0.383-2.687-0.687-4.168-0.892-0.919-1.182-1.882-2.238-2.861-3.166 1.175-0.817 2.289-1.339 3.219-1.546 0.238-0.053 0.461-0.088 0.671-0.103zM17.231 5.675c0.433 0.4 0.864 0.845 1.296 1.31-0.429-0.015-0.858-0.029-1.296-0.029s-0.866 0.014-1.296 0.029c0.431-0.465 0.863-0.91 1.296-1.31zM17.231 9.418c1.187 0 2.338 0.070 3.445 0.188 0.655 0.9 1.291 1.861 1.885 2.889s1.108 2.059 1.56 3.077c-0.452 1.018-0.967 2.049-1.56 3.077s-1.229 1.99-1.885 2.889c-1.107 0.118-2.258 0.187-3.445 0.187s-2.338-0.070-3.445-0.187c-0.655-0.9-1.291-1.861-1.885-2.889s-1.108-2.059-1.56-3.077c0.452-1.018 0.966-2.049 1.56-3.077s1.229-1.99 1.885-2.889c1.107-0.118 2.258-0.188 3.445-0.188zM10.442 10.156c-0.228 0.364-0.454 0.729-0.673 1.108s-0.421 0.758-0.623 1.137c-0.187-0.605-0.356-1.203-0.486-1.776 0.562-0.175 1.163-0.328 1.781-0.469zM24.019 10.156c0.618 0.141 1.219 0.294 1.781 0.469-0.13 0.574-0.298 1.171-0.486 1.776-0.201-0.379-0.404-0.758-0.623-1.137s-0.445-0.744-0.673-1.108zM6.344 11.514c0.315 1.311 0.749 2.671 1.313 4.058-0.564 1.387-0.998 2.746-1.313 4.058-1.294-0.608-2.304-1.313-2.947-2.014-0.659-0.719-0.935-1.384-0.935-2.043s0.276-1.324 0.935-2.043c0.643-0.702 1.653-1.406 2.947-2.014zM28.118 11.514c1.294 0.608 2.304 1.313 2.947 2.014 0.659 0.719 0.935 1.384 0.935 2.043s-0.276 1.325-0.935 2.043c-0.643 0.702-1.653 1.406-2.947 2.014-0.315-1.311-0.749-2.671-1.313-4.058 0.564-1.387 0.998-2.746 1.313-4.058zM17.231 11.879c-2.025 0-3.692 1.668-3.692 3.692s1.668 3.692 3.692 3.692 3.692-1.668 3.692-3.692c0-2.025-1.668-3.692-3.692-3.692zM17.231 14.341c0.694 0 1.231 0.537 1.231 1.231s-0.537 1.231-1.231 1.231-1.231-0.536-1.231-1.231c0-0.694 0.537-1.231 1.231-1.231zM9.147 18.742c0.201 0.379 0.404 0.758 0.623 1.137s0.445 0.744 0.673 1.108c-0.618-0.141-1.219-0.294-1.781-0.469 0.13-0.574 0.298-1.171 0.486-1.776zM25.315 18.742c0.187 0.605 0.356 1.203 0.486 1.776-0.562 0.175-1.163 0.328-1.781 0.469 0.228-0.364 0.454-0.729 0.673-1.108s0.421-0.758 0.623-1.137zM8.274 22.971c1.292 0.383 2.687 0.687 4.168 0.892 0.919 1.182 1.882 2.238 2.861 3.166-1.175 0.817-2.289 1.339-3.219 1.546-0.952 0.211-1.667 0.118-2.238-0.212s-1.010-0.902-1.303-1.832c-0.286-0.908-0.39-2.135-0.269-3.56zM26.187 22.971c0.12 1.425 0.017 2.652-0.269 3.56-0.293 0.93-0.732 1.502-1.303 1.832s-1.286 0.423-2.238 0.212c-0.93-0.206-2.044-0.728-3.219-1.546 0.978-0.928 1.941-1.984 2.861-3.166 1.481-0.205 2.877-0.509 4.168-0.892zM15.935 24.158c0.429 0.015 0.858 0.029 1.296 0.029s0.866-0.014 1.296-0.029c-0.431 0.465-0.863 0.91-1.296 1.31-0.433-0.4-0.864-0.845-1.296-1.31z"></path>
      </symbol>
      <symbol id="icon-h1-closed" viewBox="0 0 75 32">
         <path d="M2.116 18.738v-1.991l10.702-6.197v2.066l-8.836 5.003v0.199l8.836 5.003v2.116l-10.702-6.197zM17.164 28.768l8.661-22.35h1.792l-8.661 22.35h-1.792zM32.286 6.916h1.991v7.666h0.1c0.133-0.315 0.299-0.614 0.498-0.896 0.199-0.299 0.44-0.556 0.722-0.772 0.299-0.216 0.647-0.39 1.045-0.523s0.863-0.199 1.394-0.199c1.344 0 2.422 0.431 3.236 1.294 0.813 0.846 1.22 2.049 1.22 3.609v8.238h-1.991v-7.89c0-1.178-0.257-2.049-0.772-2.613-0.514-0.581-1.269-0.871-2.265-0.871-0.398 0-0.788 0.050-1.17 0.149s-0.722 0.249-1.020 0.448-0.539 0.456-0.722 0.772c-0.183 0.315-0.274 0.68-0.274 1.095v8.91h-1.991v-18.418zM46.886 25.333v-1.817h4.978v-14.012h-0.174l-4.38 4.082-1.22-1.319 4.604-4.306h3.26v15.556h4.58v1.817h-11.648zM61.81 22.869l8.836-5.003v-0.199l-8.836-5.003v-2.116l10.702 6.197v1.991l-10.702 6.197v-2.066z"></path>
      </symbol>
      <symbol id="icon-h1-open" viewBox="0 0 96 32">
         <path d="M0 17.082v3.463l18.592 10.758v-3.674l-15.351-8.689v-0.348l15.351-8.689v-3.59l-18.592 10.769z"></path>
         <path d="M29.969-0h-3.463v32h3.463v-15.477c0-0.719 0.156-1.348 0.467-1.886 0.003-0.005 0.005-0.009 0.008-0.014 0.18-0.312 0.393-0.592 0.64-0.838 0.187-0.187 0.392-0.354 0.617-0.503 0.521-0.352 1.112-0.612 1.774-0.781 0.257-0.068 0.516-0.123 0.777-0.165 0.411-0.066 0.828-0.099 1.25-0.099 1.476 0 2.649 0.363 3.516 1.090 0.15 0.125 0.29 0.262 0.422 0.409 0.894 0.992 1.341 2.513 1.341 4.561v13.704h3.463v-14.316c0-2.568-0.636-4.587-1.906-6.055-0.070-0.081-0.142-0.16-0.216-0.237-0.424-0.445-0.888-0.823-1.394-1.134-1.183-0.729-2.591-1.093-4.223-1.093-0.922 0-1.732 0.116-2.428 0.348-0.69 0.232-1.288 0.535-1.795 0.908-0.301 0.225-0.576 0.475-0.824 0.748-0.163 0.18-0.314 0.37-0.453 0.571-0.345 0.507-0.633 1.035-0.866 1.584h-0.169v-13.324z"></path>
         <path d="M51.892 28.843v3.157h20.239v-3.157h-7.96v-27.027h-5.659l-8.003 7.485 2.122 2.291 7.612-7.095h0.296v24.346h-8.647z"></path>
         <path d="M93.189 19.025l-15.351 8.689v3.59l18.592-10.758v-3.463l-18.592-10.769v3.674l15.351 8.689v0.348z"></path>
      </symbol>
      <symbol id="icon-p-closed" viewBox="0 0 60 32">
         <path d="M2.116 18.738v-1.991l10.702-6.197v2.066l-8.836 5.003v0.199l8.836 5.003v2.116l-10.702-6.197zM17.164 28.768l8.661-22.35h1.792l-8.661 22.35h-1.792zM32.212 12.491h1.991v2.091h0.1c0.83-1.593 2.149-2.389 3.957-2.389 1.576 0 2.804 0.589 3.684 1.767 0.896 1.178 1.344 2.829 1.344 4.953s-0.448 3.775-1.344 4.953c-0.879 1.178-2.107 1.767-3.684 1.767-1.809 0-3.128-0.796-3.957-2.389h-0.1v7.068h-1.991v-17.82zM37.488 23.865c1.161 0 2.057-0.348 2.688-1.045 0.647-0.713 0.971-1.651 0.971-2.812v-2.19c0-1.161-0.324-2.091-0.971-2.788-0.631-0.713-1.527-1.070-2.688-1.070-0.448 0-0.871 0.058-1.269 0.174s-0.747 0.29-1.045 0.523c-0.299 0.216-0.539 0.489-0.722 0.821-0.166 0.315-0.249 0.689-0.249 1.12v4.629c0 0.431 0.083 0.813 0.249 1.145 0.182 0.315 0.423 0.589 0.722 0.821 0.299 0.216 0.647 0.382 1.045 0.498s0.821 0.174 1.269 0.174zM46.886 22.869l8.836-5.003v-0.199l-8.836-5.003v-2.116l10.702 6.197v1.991l-10.702 6.197v-2.066z"></path>
      </symbol>
      <symbol id="icon-p-open" viewBox="0 0 46 32">
         <path d="M2.116 18.738v-1.991l10.702-6.197v2.066l-8.836 5.003v0.199l8.836 5.003v2.116l-10.702-6.197zM17.288 12.491h1.991v2.091h0.1c0.83-1.593 2.149-2.389 3.957-2.389 1.576 0 2.804 0.589 3.684 1.767 0.896 1.178 1.344 2.829 1.344 4.953s-0.448 3.775-1.344 4.953c-0.879 1.178-2.107 1.767-3.684 1.767-1.809 0-3.128-0.796-3.957-2.389h-0.1v7.068h-1.991v-17.82zM22.564 23.865c1.162 0 2.058-0.348 2.688-1.045 0.647-0.713 0.971-1.651 0.971-2.812v-2.19c0-1.161-0.324-2.091-0.971-2.788-0.63-0.713-1.526-1.070-2.688-1.070-0.448 0-0.871 0.058-1.269 0.174s-0.747 0.29-1.045 0.523c-0.299 0.216-0.539 0.489-0.722 0.821-0.166 0.315-0.249 0.689-0.249 1.12v4.629c0 0.431 0.083 0.813 0.249 1.145 0.183 0.315 0.423 0.589 0.722 0.821 0.299 0.216 0.647 0.382 1.045 0.498s0.821 0.174 1.269 0.174zM31.963 22.869l8.836-5.003v-0.199l-8.836-5.003v-2.116l10.702 6.197v1.991l-10.702 6.197v-2.066z"></path>
      </symbol>
      <symbol id="icon-slash" viewBox="0 0 47 32">
         <path d="M3.397 15.963l11.709 4.815-0.858 2.54-14.248-6.036v-2.639l14.248-6.036 0.858 2.54-11.709 4.815zM19.21 31.926h-3.133l11.181-31.926h3.067l-11.115 31.926zM31.275 11.148l0.858-2.54 14.248 6.036v2.639l-14.248 6.036-0.858-2.54 11.708-4.815-11.708-4.815z"></path>
      </symbol>
      <symbol id="icon-scroll" viewBox="0 0 7 32">
         <path d="M0 3.507c0-1.937 1.57-3.507 3.507-3.507s3.507 1.57 3.507 3.507v2.63c0 1.937-1.57 3.507-3.507 3.507h-0.438v-0.027c-1.73-0.216-3.068-1.691-3.068-3.48v-2.63zM3.507 8.767c1.453 0 2.63-1.178 2.63-2.63v-2.63c0-1.453-1.178-2.63-2.63-2.63s-2.63 1.178-2.63 2.63v2.63c0 1.453 1.178 2.63 2.63 2.63z"></path>
         <path d="M3.799 2.009v1.607h-0.584v-1.607h0.584z"></path>
         <path d="M3.616 13.151c0-0.060-0.049-0.11-0.11-0.11s-0.11 0.049-0.11 0.11h0.219zM3.507 31.318l0.633-0.633-0.633-0.633-0.633 0.633 0.633 0.633zM3.397 13.777c0 0.061 0.049 0.11 0.11 0.11s0.11-0.049 0.11-0.11h-0.219zM3.616 15.029c0-0.060-0.049-0.11-0.11-0.11s-0.11 0.049-0.11 0.11h0.219zM3.397 16.282c0 0.061 0.049 0.11 0.11 0.11s0.11-0.049 0.11-0.11h-0.219zM3.616 17.534c0-0.061-0.049-0.11-0.11-0.11s-0.11 0.049-0.11 0.11h0.219zM3.397 18.787c0 0.061 0.049 0.11 0.11 0.11s0.11-0.049 0.11-0.11h-0.219zM3.616 20.039c0-0.061-0.049-0.11-0.11-0.11s-0.11 0.049-0.11 0.11h0.219zM3.397 21.292c0 0.061 0.049 0.11 0.11 0.11s0.11-0.049 0.11-0.11h-0.219zM3.616 22.544c0-0.061-0.049-0.11-0.11-0.11s-0.11 0.049-0.11 0.11h0.219zM3.397 23.796c0 0.061 0.049 0.11 0.11 0.11s0.11-0.049 0.11-0.11h-0.219zM3.616 25.049c0-0.061-0.049-0.11-0.11-0.11s-0.11 0.049-0.11 0.11h0.219zM3.397 26.301c0 0.061 0.049 0.11 0.11 0.11s0.11-0.049 0.11-0.11h-0.219zM3.616 27.554c0-0.061-0.049-0.11-0.11-0.11s-0.11 0.049-0.11 0.11h0.219zM3.397 28.806c0 0.061 0.049 0.11 0.11 0.11s0.11-0.049 0.11-0.11h-0.219zM3.616 30.059c0-0.061-0.049-0.11-0.11-0.11s-0.11 0.049-0.11 0.11h0.219zM3.397 13.151v0.626h0.219v-0.626h-0.219zM3.397 15.029v1.252h0.219v-1.252h-0.219zM3.397 17.534v1.252h0.219v-1.252h-0.219zM3.397 20.039v1.252h0.219v-1.252h-0.219zM3.397 22.544v1.252h0.219v-1.252h-0.219zM3.397 25.049v1.252h0.219v-1.252h-0.219zM3.397 27.554v1.253h0.219v-1.253h-0.219zM3.397 30.059v0.626h0.219v-0.626h-0.219zM3.726 13.151c0-0.121-0.098-0.219-0.219-0.219s-0.219 0.098-0.219 0.219h0.438zM3.507 31.95l1.265-1.266-1.265-1.266-1.265 1.266 1.265 1.266zM3.288 13.777c0 0.121 0.098 0.219 0.219 0.219s0.219-0.098 0.219-0.219h-0.438zM3.726 15.029c0-0.121-0.098-0.219-0.219-0.219s-0.219 0.098-0.219 0.219h0.438zM3.288 16.282c0 0.121 0.098 0.219 0.219 0.219s0.219-0.098 0.219-0.219h-0.438zM3.726 17.534c0-0.121-0.098-0.219-0.219-0.219s-0.219 0.098-0.219 0.219h0.438zM3.288 18.787c0 0.121 0.098 0.219 0.219 0.219s0.219-0.098 0.219-0.219h-0.438zM3.726 20.039c0-0.121-0.098-0.219-0.219-0.219s-0.219 0.098-0.219 0.219h0.438zM3.288 21.292c0 0.121 0.098 0.219 0.219 0.219s0.219-0.098 0.219-0.219h-0.438zM3.726 22.544c0-0.121-0.098-0.219-0.219-0.219s-0.219 0.098-0.219 0.219h0.438zM3.288 23.796c0 0.121 0.098 0.219 0.219 0.219s0.219-0.098 0.219-0.219h-0.438zM3.726 25.049c0-0.121-0.098-0.219-0.219-0.219s-0.219 0.098-0.219 0.219h0.438zM3.288 26.301c0 0.121 0.098 0.219 0.219 0.219s0.219-0.098 0.219-0.219h-0.438zM3.726 27.554c0-0.121-0.098-0.219-0.219-0.219s-0.219 0.098-0.219 0.219h0.438zM3.288 28.806c0 0.121 0.098 0.219 0.219 0.219s0.219-0.098 0.219-0.219h-0.438zM3.726 30.059c0-0.121-0.098-0.219-0.219-0.219s-0.219 0.098-0.219 0.219h0.438zM3.288 13.151v0.626h0.438v-0.626h-0.438zM3.288 15.029v1.252h0.438v-1.252h-0.438zM3.288 17.534v1.252h0.438v-1.252h-0.438zM3.288 20.039v1.252h0.438v-1.252h-0.438zM3.288 22.544v1.252h0.438v-1.252h-0.438zM3.288 25.049v1.252h0.438v-1.252h-0.438zM3.288 27.554v1.253h0.438v-1.253h-0.438zM3.288 30.059v0.626h0.438v-0.626h-0.438z"></path>
      </symbol>
      <symbol id="icon-monitor" viewBox="0 0 32 32">
         <path d="M17.333 24v2.667h4c0.736 0 1.333 0.597 1.333 1.333s-0.597 1.333-1.333 1.333h-10.667c-0.736 0-1.333-0.597-1.333-1.333s0.597-1.333 1.333-1.333h4v-2.667h-9.333c-2.209 0-4-1.791-4-4v-13.333c0-2.209 1.791-4 4-4h21.333c2.209 0 4 1.791 4 4v13.333c0 2.209-1.791 4-4 4h-9.333zM5.333 5.333c-0.736 0-1.333 0.597-1.333 1.333v13.333c0 0.736 0.597 1.333 1.333 1.333h21.333c0.736 0 1.333-0.597 1.333-1.333v-13.333c0-0.736-0.597-1.333-1.333-1.333h-21.333z"></path>
      </symbol>
      <symbol id="icon-mouse-pointer" viewBox="0 0 32 32">
         <path d="M4.513 2.769c-0.499-0.208-1.074-0.094-1.456 0.288s-0.496 0.957-0.288 1.456l9.427 22.627c0.213 0.512 0.721 0.839 1.276 0.82s1.039-0.379 1.218-0.904l2.657-7.823 7.044 7.044c0.521 0.521 1.365 0.521 1.886 0s0.521-1.365 0-1.886l-7.044-7.044 7.823-2.657c0.525-0.178 0.885-0.663 0.904-1.218s-0.308-1.062-0.82-1.276l-22.627-9.427zM13.3 22.855l-6.824-16.379 16.379 6.824-6.51 2.211c-0.392 0.133-0.7 0.441-0.834 0.834l-2.211 6.51z"></path>
      </symbol>
      <symbol id="icon-smartphone" viewBox="0 0 32 32">
         <path d="M5.333 5.333c0-2.209 1.791-4 4-4h13.333c2.209 0 4 1.791 4 4v21.333c0 2.209-1.791 4-4 4h-13.333c-2.209 0-4-1.791-4-4v-21.333zM9.333 4c-0.736 0-1.333 0.597-1.333 1.333v21.333c0 0.736 0.597 1.333 1.333 1.333h13.333c0.736 0 1.333-0.597 1.333-1.333v-21.333c0-0.736-0.597-1.333-1.333-1.333h-13.333zM14.667 24c0-0.736 0.597-1.333 1.333-1.333h0.013c0.736 0 1.333 0.597 1.333 1.333s-0.597 1.333-1.333 1.333h-0.013c-0.736 0-1.333-0.597-1.333-1.333z"></path>
      </symbol>
      <symbol id="icon-mouse" viewBox="0 0 23 32">
         <path d="M0 11.636c0-6.427 5.21-11.636 11.636-11.636s11.636 5.21 11.636 11.636v8.727c0 6.427-5.21 11.636-11.636 11.636h-1.455v-0.090c-5.74-0.716-10.182-5.612-10.182-11.546v-8.727zM11.636 29.091c4.82 0 8.727-3.907 8.727-8.727v-8.727c0-4.82-3.907-8.727-8.727-8.727s-8.727 3.907-8.727 8.727v8.727c0 4.82 3.907 8.727 8.727 8.727z"></path>
         <path d="M12.606 6.667v5.333h-1.939v-5.333h1.939z"></path>
      </symbol>
      <symbol id="icon-rocket" viewBox="0 0 32 32">
         <path d="M22 2l-10 10h-6l-6 8c0 0 6.357-1.77 10.065-0.94l-10.065 12.94 13.184-10.255c1.839 4.208-1.184 10.255-1.184 10.255l8-6v-6l10-10 2-10-10 2z"></path>
      </symbol>
      <symbol id="icon-power" viewBox="0 0 32 32">
         <path d="M12 0l-12 16h12l-8 16 28-20h-16l12-12z"></path>
      </symbol>
   </defs>
</svg>
